<svg xmlns="http://www.w3.org/2000/svg" xmlns:xlink="http://www.w3.org/1999/xlink" version="1.1" width="256" height="256" viewBox="0 0 256 256" xml:space="preserve">
<g style="stroke: none; stroke-width: 0; stroke-dasharray: none; stroke-linecap: butt; stroke-linejoin: miter; stroke-miterlimit: 10; fill: none; fill-rule: nonzero; opacity: 1;" transform="translate(1.4065934065934016 1.4065934065934016) scale(2.81 2.81)">
	<path d="M 30.091 10.131 L 30.091 10.131 c 5.28 -13.046 23.695 -13.207 29.202 -0.255 l 0 0 l 0 0 c 12.959 -5.491 26.093 7.416 20.829 20.469 l 0 0 l 0 0 c 13.046 5.28 13.207 23.695 0.255 29.202 l 0 0 l 0 0 c 5.491 12.959 -7.416 26.093 -20.469 20.829 l 0 0 l 0 0 c -5.28 13.046 -23.695 13.207 -29.202 0.255 l 0 0 l 0 0 C 17.748 86.122 4.613 73.215 9.878 60.162 l 0 0 l 0 0 C -3.169 54.881 -3.33 36.467 9.623 30.96 l 0 0 l 0 0 C 4.131 18.001 17.038 4.866 30.091 10.131 L 30.091 10.131 z" style="stroke: none; stroke-width: 1; stroke-dasharray: none; stroke-linecap: butt; stroke-linejoin: miter; stroke-miterlimit: 10; fill: rgb(0,150,241); fill-rule: nonzero; opacity: 1;" transform=" matrix(1 0 0 1 0 0) " stroke-linecap="round"/>
	<polygon points="39.66,63.79 23.36,47.76 28.97,42.05 39.3,52.21 59.6,29.58 65.56,34.93 " style="stroke: none; stroke-width: 1; stroke-dasharray: none; stroke-linecap: butt; stroke-linejoin: miter; stroke-miterlimit: 10; fill: rgb(255,255,255); fill-rule: nonzero; opacity: 1;" transform="  matrix(1 0 0 1 0 0) "/>
</g>
</svg>